<?xml version="1.0" encoding="UTF-8"?>
<svg width="40px" height="40px" viewBox="0 0 40 40" version="1.1" xmlns="http://www.w3.org/2000/svg" xmlns:xlink="http://www.w3.org/1999/xlink">
    <title>advanced-pinning-prototyping-tool</title>
    <g id="Page-1" stroke="none" stroke-width="1" fill="none" fill-rule="evenodd">
        <g id="Web-Justinmind-2021" transform="translate(-133.000000, -388.000000)">
            <g id="HOME" transform="translate(25.500000, 295.947835)">
                <g id="Advanced-pinning" transform="translate(107.484571, 92.088786)">
                    <path d="M28.4834824,0.893012082 L39.4569444,11.8899128 C37.1955124,13.1525811 34.1241296,12.8644603 34.0836504,12.8652582 L27.1603803,5.93236964 C27.1593573,5.90901241 26.7954093,3.97217619 28.4834824,0.893012082" id="Fill-1" fill="#5F6568"></path>
                    <path d="M21.478831,38.8850089 C20.4851149,39.8816727 18.5223623,39.9421055 17.5372114,38.9368504 L1.19911014,22.2405105 C0.213959288,21.2352554 0.573627907,19.5390986 1.56734403,18.5425082 L2.59858764,17.5083951 L22.502816,37.858092 L21.478831,38.8850089 Z" id="Fill-3" fill="#5F6568"></path>
                    <g id="Group-7">
                        <polygon id="Clip-6" points="6.36597683e-05 2.73099608e-05 40.0154285 2.73099608e-05 40.0154285 39.8255272 6.36597683e-05 39.8255272"></polygon>
                        <path d="M38.4810059,11.4837713 C37.1226864,12.2437234 35.6372601,12.3752396 34.7720558,12.3752396 C34.3209187,12.3752396 34.0385002,12.3395372 34.0304415,12.3384442 L34.022676,12.3372056 C34.003555,12.3352383 33.9853865,12.3346554 33.9619431,12.334874 L33.8591589,12.336987 L33.7864847,12.2643434 L27.6798708,6.13802163 L27.6748158,6.02727117 C27.6745228,6.01823627 27.674303,6.01138722 27.6734239,6.00461105 C27.4173058,4.00396234 28.1299089,2.35283333 28.577383,1.54654086 L28.7323285,1.26747885 L28.7762847,1.31141472 L38.7557321,11.3303236 L38.4810059,11.4837713 Z M33.0598156,13.0983964 L23.1841048,24.4283138 C23.0517967,24.5802314 23.0124559,24.7892 23.0840312,24.9607175 C23.1027858,25.0055277 24.7580295,30.0456935 22.6962643,36.0849451 L22.5713555,36.4505673 L22.4301829,36.3089233 L3.38513729,17.1632296 L3.74792239,17.040384 C7.06676136,15.9149554 9.89556205,15.8889436 11.6845058,16.0656343 C13.7046591,16.2648394 14.8867143,16.7522871 14.8977766,16.757096 C15.0739677,16.8425633 15.299463,16.8090467 15.4598298,16.6738146 L26.9607475,6.9185209 L26.9912971,6.94926872 L33.0882406,13.065827 L33.0598156,13.0983964 Z M21.4683481,38.1255223 C20.9539142,38.6327156 20.2742782,38.9082803 19.5612355,38.9082803 C19.4371325,38.9082803 19.3120772,38.8998282 19.1865822,38.8829971 C18.5892176,38.8024116 18.048996,38.5347889 17.6244524,38.1089097 L1.70938075,22.1182196 C1.19904937,21.6062173 0.91970777,20.9261949 0.922903635,20.2034753 C0.925934897,19.4808286 1.21128384,18.8032107 1.72623062,18.2953616 L2.38872369,17.6420796 L2.47612325,17.7298056 L22.1236617,37.4793808 L21.4683481,38.1255223 Z M40.0130257,11.3553882 C40.0267254,11.2163672 39.9813773,11.0837581 39.8889227,10.9913689 L29.0685201,0.127987805 C28.980681,0.0395331636 28.8452227,-0.00629712401 28.698409,0.000697641672 C28.5590679,0.012647033 28.4229502,0.0865292455 28.3256605,0.203254398 C28.2467591,0.297975183 26.3959104,2.5620934 26.6443362,5.82136276 L26.653567,5.94224105 L26.6356915,5.95761496 L15.1404148,15.7071525 L15.0253961,15.6835452 C14.2361627,15.5217184 13.4573322,15.3885992 12.71037,15.2879038 C8.3592199,14.7007806 5.54932037,15.2653894 3.95861906,15.8423118 C1.89934476,16.5892216 1.10725419,17.6063771 1.09941533,17.6165778 L1.08227242,17.6366149 C0.388204156,18.3214462 0.00446660494,19.2310572 3.51942986e-05,20.1996136 C-0.0041781127,21.1680972 0.370035597,22.0791655 1.05370089,22.7650168 L8.64427581,30.3922988 L8.61094236,30.4250139 L1.32666884,37.6111155 C1.12212603,37.8128708 1.1048366,38.1268338 1.28828044,38.3110293 C1.37472761,38.3979538 1.49611996,38.4445127 1.62403248,38.440141 C1.75985711,38.4360607 1.89033374,38.3787911 1.99135972,38.2789699 L9.30969928,31.0595703 L9.34266643,31.0926497 L16.9688459,38.7557069 C18.382477,40.1735314 20.6926679,40.1834406 22.1184602,38.7775656 L22.1323797,38.7651061 C22.1432222,38.7561441 23.1368519,37.9223826 23.8707738,35.8549922 C24.5640362,33.902141 25.1765657,30.4135745 24.1577344,24.8846494 L24.137075,24.7718588 L24.1515806,24.7550277 L34.0932989,13.3493336 L34.2105154,13.3553812 C35.2128631,13.4070404 37.7646665,13.3532682 39.8043803,11.7321583 C39.9232818,11.6375833 39.9992528,11.500311 40.0130257,11.3553882 L40.0130257,11.3553882 Z" id="Fill-5" fill="#FFFFFF"></path>
                    </g>
                </g>
                <g id="SLICES" transform="translate(7.500000, 37.052165)"></g>
            </g>
        </g>
    </g>
</svg>