<?xml version="1.0" encoding="UTF-8"?>
<svg width="40px" height="40px" viewBox="0 0 40 40" version="1.1" xmlns="http://www.w3.org/2000/svg" xmlns:xlink="http://www.w3.org/1999/xlink">
    <title>auto-resize-ui-components</title>
    <g id="Page-1" stroke="none" stroke-width="1" fill="none" fill-rule="evenodd">
        <g id="Web-Justinmind-2021" transform="translate(-83.000000, -388.000000)">
            <g id="HOME" transform="translate(25.500000, 295.947835)">
                <g id="Auto-resize-UI-components" transform="translate(57.475111, 92.088786)">
                    <path d="M36.0660517,22.8307187 C36.0660517,24.1538339 35.0647276,25.2303088 33.83395,25.2303088 L5.622997,25.2307669 C4.39214652,25.2307669 3.39082237,24.154292 3.39082237,22.8311114 L3.39082237,20.5538926 C3.39082237,19.230712 4.39214652,18.1542371 5.622997,18.1542371 L33.83395,18.1538445 C35.0647276,18.1538445 36.0660517,19.2303193 36.0660517,20.5535 L36.0660517,22.8307187 Z" id="Fill-1" fill="#5F6568"></path>
                    <path d="M29.2485434,0.307692279 L10.5166609,0.308041374 C8.79715851,0.308041374 7.39816182,1.64067639 7.39816182,3.2788393 L7.39816182,5.02920132 C7.39816182,6.66736423 8.79715851,7.99999925 10.5167342,7.99999925 L29.2483968,7.99965016 C30.9679725,7.99965016 32.3669692,6.66694532 32.3669692,5.02885223 L32.3669692,3.27842039 C32.3669692,1.6403273 30.9680458,0.307692279 29.2485434,0.307692279" id="Fill-3" fill="#5F6568"></path>
                    <path d="M19.944589,3.38461507 C19.6554821,3.38461507 19.4201802,3.52261201 19.4201802,3.69230735 C19.4201802,3.86195823 19.6554821,3.99999963 19.944589,3.99999963 L21.9782644,3.99999963 C22.2674471,3.99999963 22.502749,3.86195823 22.502749,3.69230735 C22.502749,3.52261201 22.2674471,3.38461507 21.9782644,3.38461507 L19.944589,3.38461507 Z" id="Fill-5" fill="#FFFFFF"></path>
                    <path d="M17.3974638,3.38461507 L10.9620931,3.38461507 C10.6967177,3.38461507 10.4807306,3.52261201 10.4807306,3.69230735 C10.4807306,3.86195823 10.6967177,3.99999963 10.9620931,3.99999963 L17.3974638,3.99999963 C17.6629087,3.99999963 17.8788958,3.86195823 17.8788958,3.69230735 C17.8788958,3.52261201 17.6629087,3.38461507 17.3974638,3.38461507" id="Fill-7" fill="#FFFFFF"></path>
                    <path d="M28.5137203,3.07692279 C29.4486162,3.07692279 30.209171,3.83608455 30.209171,4.76926814 C30.209171,5.7023761 29.4486162,6.46153786 28.5137203,6.46153786 C27.5789001,6.46153786 26.8183453,5.7023761 26.8183453,4.76926814 C26.8183453,3.83608455 27.5789001,3.07692279 28.5137203,3.07692279" id="Fill-9" fill="#FFFFFF"></path>
                    <path d="M16.2455064,21.5384595 C15.9563995,21.5384595 15.7210976,21.6764565 15.7210976,21.8461518 C15.7210976,22.0158027 15.9563995,22.1538441 16.2455064,22.1538441 L18.2791818,22.1538441 C18.5683645,22.1538441 18.8036664,22.0158027 18.8036664,21.8461518 C18.8036664,21.6764565 18.5683645,21.5384595 18.2791818,21.5384595 L16.2455064,21.5384595 Z" id="Fill-11" fill="#FFFFFF"></path>
                    <path d="M13.0882987,21.5384595 L6.640135,21.5384595 C6.37816742,21.5384595 6.1651343,21.6764565 6.1651343,21.8461518 C6.1651343,22.0158027 6.37816742,22.1538441 6.640135,22.1538441 L13.0882987,22.1538441 C13.3501977,22.1538441 13.5632994,22.0158027 13.5632994,21.8461518 C13.5632994,21.6764565 13.3501977,21.5384595 13.0882987,21.5384595" id="Fill-13" fill="#FFFFFF"></path>
                    <path d="M32.9834829,21.3845756 C32.9834829,22.3177592 32.2229281,23.0769209 31.288108,23.0769209 C30.353212,23.0769209 29.5926572,22.3177592 29.5926572,21.3845756 C29.5926572,20.4514676 30.353212,19.6923059 31.288108,19.6923059 C32.2229281,19.6923059 32.9834829,20.4514676 32.9834829,21.3845756 Z" id="Fill-15" fill="#FFFFFF"></path>
                    <g id="Group-19" transform="translate(0.007829, 13.244425)">
                        <polygon id="Clip-18" points="0 0 40.0419427 0 40.0419427 16.2409514 0 16.2409514"></polygon>
                        <path d="M38.7585045,14.1152762 L38.2439124,14.1152762 C38.0428142,14.1152762 37.8782792,14.2769163 37.8782792,14.4744765 L37.8782792,14.9149278 L20.920067,14.8770681 L20.920067,14.4744765 C20.920067,14.2769163 20.755532,14.1152762 20.5544338,14.1152762 L19.1220293,14.1152762 C18.9209311,14.1152762 18.7563962,14.2769163 18.7563962,14.4744765 L18.7563962,14.8722548 L2.16374392,14.8351853 L2.16374392,14.4744765 C2.16374392,14.2769163 1.999209,14.1152762 1.79811076,14.1152762 L1.32227577,14.1152762 L1.32227577,2.27783239 L1.79811076,2.27783239 C1.999209,2.27783239 2.16374392,2.11619228 2.16374392,1.91863215 L2.16374392,1.61941835 L18.7563962,1.65641598 L18.7563962,1.76640309 C18.7563962,1.96396322 18.9209311,2.12560333 19.1220293,2.12560333 L20.5544338,2.12560333 C20.755532,2.12560333 20.920067,1.96396322 20.920067,1.76640309 L20.920067,1.6613011 L37.8782792,1.6991608 L37.8782792,1.91863215 C37.8782792,2.11619228 38.0428142,2.27783239 38.2439124,2.27783239 L38.7585045,2.27783239 L38.7585045,14.1152762 Z M39.6763169,2.27783239 C39.8774151,2.27783239 40.04195,2.11619228 40.04195,1.91863215 L40.04195,0.511357458 C40.04195,0.313797328 39.8774151,0.152157221 39.6763169,0.152157221 L38.2439124,0.152157221 C38.0428142,0.152157221 37.8782792,0.313797328 37.8782792,0.511357458 L37.8782792,0.944624785 L20.920067,0.90690876 L20.920067,0.359200238 C20.920067,0.161640107 20.755532,0 20.5544338,0 L19.1220293,0 C18.9209311,0 18.7563962,0.161640107 18.7563962,0.359200238 L18.7563962,0.902023637 L2.16374392,0.865169692 L2.16374392,0.511357458 C2.16374392,0.313797328 1.999209,0.152157221 1.79811076,0.152157221 L0.365633161,0.152157221 C0.164534923,0.152157221 0,0.313797328 0,0.511357458 L0,1.91863215 C0,2.11619228 0.164534923,2.27783239 0.365633161,2.27783239 L0.757665037,2.27783239 L0.757665037,14.1152762 L0.365633161,14.1152762 C0.164534923,14.1152762 0,14.2769163 0,14.4744765 L0,15.8817511 C0,16.0793113 0.164534923,16.2409514 0.365633161,16.2409514 L1.79811076,16.2409514 C1.999209,16.2409514 2.16374392,16.0793113 2.16374392,15.8817511 L2.16374392,15.5896495 L18.7563962,15.6266471 L18.7563962,15.8817511 C18.7563962,16.0793113 18.9209311,16.2409514 19.1220293,16.2409514 L20.5544338,16.2409514 C20.755532,16.2409514 20.920067,16.0793113 20.920067,15.8817511 L20.920067,15.6314604 L37.8782792,15.6692483 L37.8782792,15.8817511 C37.8782792,16.0793113 38.0428142,16.2409514 38.2439124,16.2409514 L39.6763169,16.2409514 C39.8774151,16.2409514 40.04195,16.0793113 40.04195,15.8817511 L40.04195,14.4744765 C40.04195,14.2769163 39.8774151,14.1152762 39.6763169,14.1152762 L39.3231152,14.1152762 L39.3231152,2.27783239 L39.6763169,2.27783239 Z" id="Fill-17" fill="#FFFFFF"></path>
                    </g>
                    <path d="M26.1034966,8.30769153 L29.2908276,8.28047004 C30.9870287,8.28047004 32.3669692,6.88813836 32.3669692,5.17670621 L32.3669692,3.10405732 C32.3669692,1.39233168 30.9870287,0 29.290973,0 L19.8825655,0.000146746594 L10.474158,0 C8.77810232,0 7.39816182,1.39233168 7.39816182,3.10361708 L7.39816182,5.17670621 C7.39816182,6.88813836 8.77810232,8.28047004 10.4742307,8.28047004 L21.2246187,8.30769153 C21.4813941,8.30769153 21.6903923,8.09681668 21.6903923,7.83766219 C21.6903923,7.57850771 21.4813941,7.36763285 21.224546,7.36763285 L10.474158,7.37907909 C9.2704915,7.37907909 8.2913126,6.39110765 8.2913126,5.17670621 L8.2913126,3.10405732 C8.2913126,1.88965589 9.2704915,0.901611071 10.474158,0.901611071 L19.8825655,0.901464325 L29.290973,0.901611071 C30.4946395,0.901611071 31.4738911,1.88965589 31.4738911,3.10405732 L31.4738911,5.17670621 C31.4738911,6.39110765 30.4946395,7.37907909 29.290973,7.37907909 L26.1034239,7.36763285 C25.8466485,7.36763285 25.6376504,7.57850771 25.6376504,7.83766219 C25.6376504,8.09681668 25.8466485,8.30769153 26.1034966,8.30769153" id="Fill-20" fill="#FFFFFF"></path>
                    <g id="Group-24" transform="translate(0.000000, 34.780377)">
                        <polygon id="Clip-23" points="0 0 40.0146924 0 40.0146924 5.21961973 0 5.21961973"></polygon>
                        <path d="M37.4615492,5.21672039 C37.5806725,5.21672039 37.6922637,5.1694193 37.7759937,5.08363469 L39.8836495,2.9298283 C39.9254779,2.88745907 39.9576537,2.83799094 39.9792991,2.78269425 C40.0025534,2.72769645 40.0146924,2.66709426 40.0146924,2.60686569 C40.0146924,2.54693603 40.0026997,2.48767889 39.9798842,2.43552065 C39.9585312,2.38418439 39.9256973,2.33329649 39.8822601,2.28420198 L37.7759937,0.132712076 C37.692995,0.0470769187 37.5819888,0 37.4635236,0 C37.3451316,0 37.2341254,0.0470769187 37.150761,0.132712076 C37.0712724,0.213938442 37.026007,0.331780189 37.0265189,0.456123034 C37.0270307,0.577925221 37.0720768,0.692852683 37.1502491,0.771463664 L38.5025799,2.15335804 L1.51571433,2.15335804 L2.86351129,0.775648279 C2.94438935,0.693450485 2.99097101,0.576580166 2.99133664,0.455151606 C2.99133664,0.332826343 2.94490123,0.215358222 2.86395005,0.132338449 C2.78036631,0.0469274681 2.66870194,0 2.5491399,0 L2.54760424,0 C2.42921222,0.000373626339 2.31974165,0.0471516439 2.23937548,0.131665922 L0.131061549,2.28644374 C0.0879899626,2.3300833 0.0566917639,2.37820637 0.0354119139,2.43357779 C-0.0116816373,2.54364811 -0.0117547639,2.66851404 0.0349000275,2.78598216 C0.0563992574,2.83612281 0.0893062419,2.88656237 0.132450955,2.93558214 L2.23835171,5.08654898 C2.32200858,5.17240831 2.43396545,5.21963468 2.55382,5.21963468 L2.55506316,5.21963468 C2.67345517,5.21918633 2.78292574,5.17240831 2.86329191,5.08796876 C2.94475498,5.00472481 2.99133664,4.88718196 2.99133664,4.76523032 C2.99097101,4.64320396 2.9445356,4.52640837 2.86395005,4.44436002 L1.51213113,3.06254037 L38.4989967,3.06254037 L37.1471047,4.44436002 C37.067616,4.52581057 37.0222775,4.64387649 37.0229357,4.76829406 C37.0234475,4.88987207 37.0685667,5.00457536 37.1466659,5.08303689 C37.2309809,5.16926985 37.3427915,5.21672039 37.4615492,5.21672039" id="Fill-22" fill="#FFFFFF"></path>
                    </g>
                    <path d="M31.2769613,25.8461514 L33.8780775,25.8232456 C35.5945684,25.8232456 36.9908224,24.4301753 36.9908224,22.7178183 L36.9908224,20.6439606 C36.9908224,18.9315302 35.5945684,17.5384599 33.8783718,17.5384599 L6.19508963,17.538827 C4.47881943,17.538827 3.08256549,18.9318973 3.08256549,20.6443277 L3.08256549,22.7182588 C3.08256549,24.4305423 4.47881943,25.8236127 6.19516321,25.8236127 L19.2623341,25.8234659 L19.2650567,25.8243469 C19.3105315,25.8388098 19.3578459,25.8461514 19.4053811,25.8461514 L26.2128457,25.8461514 C26.4682553,25.8461514 26.6761298,25.6388244 26.6761298,25.3839237 C26.6761298,25.1290965 26.4682553,24.9217694 26.2128457,24.9217694 L6.19508963,24.9217694 C4.97720299,24.9217694 3.98632259,23.9332217 3.98632259,22.7181854 L3.98632259,20.6443277 C3.98632259,19.4292179 4.97720299,18.4405968 6.19508963,18.4405968 L33.8783718,18.4402298 C35.0961849,18.4402298 36.0870653,19.4288508 36.0870653,20.6439606 L36.0870653,22.7177449 C36.0870653,23.9327812 35.0961849,24.9214023 33.8783718,24.9214023 L31.2769613,24.9217694 C31.0214781,24.9217694 30.8136772,25.1290965 30.8136772,25.3839237 C30.8136772,25.6388244 31.0214781,25.8461514 31.2769613,25.8461514" id="Fill-25" fill="#FFFFFF"></path>
                </g>
                <g id="SLICES" transform="translate(7.500000, 37.052165)"></g>
            </g>
        </g>
    </g>
</svg>