<?xml version="1.0" encoding="UTF-8"?>
<svg width="40px" height="40px" viewBox="0 0 40 40" version="1.1" xmlns="http://www.w3.org/2000/svg" xmlns:xlink="http://www.w3.org/1999/xlink">
    <title>liquid-layouts-prototyping-tool</title>
    <g id="Page-1" stroke="none" stroke-width="1" fill="none" fill-rule="evenodd">
        <g id="Web-Justinmind-2021" transform="translate(-33.000000, -388.000000)">
            <g id="HOME" transform="translate(25.500000, 295.947835)">
                <g id="Liquid-layouts" transform="translate(7.500000, 92.113372)">
                    <path d="M38.5321101,37.1691195 C38.5321101,38.220392 37.6856987,39.0756051 36.6454068,39.0756051 L28.7051241,39.0769194 C27.6646878,39.0769194 26.8183486,38.2216333 26.8183486,37.1703608 L26.8183486,20.0617174 C26.8183486,19.0103719 27.6646878,18.1550858 28.7051241,18.1550858 L36.6454068,18.1538445 C37.6856987,18.1538445 38.5321101,19.0092036 38.5321101,20.0604761 L38.5321101,37.1691195 Z" id="Fill-1" fill="#3E4044"></path>
                    <path d="M34.428899,0.307692279 L3.17836722,0.307692279 C1.59581448,0.307692279 0.308256881,1.78065952 0.308256881,3.5911583 L0.308256881,3.59258407 L0.308256881,4.61538418 L37.2990826,4.61538418 L37.2990826,3.5911583 C37.2990826,1.78065952 36.0114518,0.307692279 34.428899,0.307692279" id="Fill-3" fill="#5F6568"></path>
                    <path d="M4.78483307,24.30769 L9.39505936,24.30769 C9.65378106,24.30769 9.86422018,24.1006699 9.86422018,23.8460769 C9.86422018,23.5916333 9.65378106,23.3846132 9.39505936,23.3846132 L4.78483307,23.3846132 C4.52611137,23.3846132 4.31559633,23.5916333 4.31559633,23.8460769 C4.31559633,24.1006699 4.52611137,24.30769 4.78483307,24.30769" id="Fill-5" fill="#FFFFFF"></path>
                    <path d="M10.9842434,23.3846132 C10.7066249,23.3846132 10.4807339,23.5916333 10.4807339,23.8461516 C10.4807339,24.1006699 10.7066249,24.30769 10.9842434,24.30769 L12.7515364,24.30769 C13.0292364,24.30769 13.2550459,24.1006699 13.2550459,23.8461516 C13.2550459,23.5916333 13.0292364,23.3846132 12.7515364,23.3846132 L10.9842434,23.3846132 Z" id="Fill-7" fill="#FFFFFF"></path>
                    <path d="M16.8000882,19.6923059 L4.77796829,19.6923059 C4.52303161,19.6923059 4.31559633,19.8993093 4.31559633,20.1538816 C4.31559633,20.4083793 4.52303161,20.6153827 4.77796829,20.6153827 L16.8000882,20.6153827 C17.05495,20.6153827 17.2623853,20.4083793 17.2623853,20.1538816 C17.2623853,19.8993093 17.05495,19.6923059 16.8000882,19.6923059" id="Fill-9" fill="#FFFFFF"></path>
                    <path d="M36.4561954,4.28724727 L36.4289001,4.2871755 L0.84288718,4.22007063 L0.84288718,2.73551007 C0.84288718,1.68731055 1.7053747,0.834684039 2.76553527,0.834684039 L34.5335473,0.83332041 C35.5937079,0.83332041 36.4561954,1.68609047 36.4561954,2.73421821 L36.4561954,4.28724727 Z M34.5335473,0 L2.76553527,0.00122008845 C1.24062888,0.00122008845 0,1.2278396 0,2.73551007 L0,24.3427023 C0,25.8503728 1.24062888,27.0769205 2.76560786,27.0769205 L23.1114133,27.0526623 C23.3437862,27.0526623 23.5328932,26.8657735 23.5328932,26.636038 C23.5328932,26.4062308 23.3437862,26.2193419 23.1114133,26.2193419 L2.76553527,26.2435284 C1.7053747,26.2435284 0.84288718,25.3908301 0.84288718,24.3426306 L0.84288718,16.5670069 L20.7222772,16.6342553 C20.9545775,16.6342553 21.1436119,16.4473664 21.1436119,16.2175592 C21.1436119,15.9878237 20.9545775,15.8010066 20.7222046,15.8010066 L0.84288718,15.7336147 L0.84288718,5.05346281 L0.870182468,5.05353458 L36.4561954,5.12056768 L36.4561954,10.7503429 C36.4561954,10.9800783 36.6452298,11.1669672 36.8776753,11.1669672 C37.1100482,11.1669672 37.2990826,10.9800783 37.2990826,10.7503429 L37.2990826,2.73421821 C37.2990826,1.22654774 36.0584537,0 34.5335473,0 L34.5335473,0 Z" id="Fill-11" fill="#FFFFFF"></path>
                    <path d="M29.7485656,36.3076889 L32.8275061,36.3076889 C33.0834711,36.3076889 33.2917431,36.1006855 33.2917431,35.8461132 C33.2917431,35.5916155 33.0834711,35.3846121 32.8275061,35.3846121 L29.7485656,35.3846121 C29.4926757,35.3846121 29.2844037,35.5916155 29.2844037,35.8461132 C29.2844037,36.1006855 29.4926757,36.3076889 29.7485656,36.3076889" id="Fill-13" fill="#FFFFFF"></path>
                    <path d="M34.2627861,35.3846121 C34.0673361,35.3846121 33.9082569,35.5916155 33.9082569,35.8461878 C33.9082569,36.1006855 34.0673361,36.3076889 34.2627861,36.3076889 L35.0949547,36.3076889 C35.2904621,36.3076889 35.4495413,36.1006855 35.4495413,35.8461878 C35.4495413,35.5916155 35.2904621,35.3846121 35.0949547,35.3846121 L34.2627861,35.3846121 Z" id="Fill-15" fill="#FFFFFF"></path>
                    <path d="M36.8345608,32.9230738 L29.1324117,32.9230738 C28.8762145,32.9230738 28.6678899,33.1300772 28.6678899,33.3846496 C28.6678899,33.6391473 28.8762145,33.8461507 29.1324117,33.8461507 L36.8345608,33.8461507 C37.0906076,33.8461507 37.2990826,33.6391473 37.2990826,33.3846496 C37.2990826,33.1300772 37.0906076,32.9230738 36.8345608,32.9230738" id="Fill-17" fill="#FFFFFF"></path>
                    <path d="M38.5321101,21.2293598 L26.8183486,21.2307672 L26.8183486,20.3169798 C26.8183486,19.1250075 27.6646878,18.1552519 28.7051241,18.1552519 L36.6454068,18.1538445 C37.6856987,18.1538445 38.5321101,19.1236 38.5321101,20.3156551 L38.5321101,21.2293598 Z" id="Fill-19" fill="#5F6568"></path>
                    <path d="M26.7399359,36.9363418 L26.7399359,30.2909712 L38.6105228,30.2909712 L38.6105228,36.9351121 C38.6105228,37.991592 37.7444839,38.8510263 36.679885,38.8510263 L28.6704279,38.852256 C27.6059748,38.852256 26.7399359,37.9927494 26.7399359,36.9363418 L26.7399359,36.9363418 Z M26.7399359,29.4509956 L38.6105228,29.4509956 L38.6105228,21.5315558 L26.7399359,21.5315558 L26.7399359,29.4509956 Z M26.7399359,19.9878148 C26.7399359,18.9314796 27.6059748,18.0720453 28.6704279,18.0720453 L36.679885,18.0707433 C37.7444839,18.0707433 38.6105228,18.9301775 38.6105228,19.9866574 L38.6105228,20.6916525 L26.7399359,20.6916525 L26.7399359,19.9878148 Z M39.4568807,19.9865851 C39.4568807,18.4670046 38.2111434,17.2307676 36.679885,17.2307676 L28.6704279,17.2320697 C27.1393154,17.2320697 25.893578,18.4682343 25.893578,19.9878148 L25.893578,36.9364142 C25.893578,38.4559947 27.1393154,39.692304 28.6704279,39.692304 L36.679885,39.6910019 C38.2111434,39.6910019 39.4568807,38.4546926 39.4568807,36.9351121 L39.4568807,19.9865851 Z" id="Fill-21" fill="#FFFFFF"></path>
                    <g id="Group-25" transform="translate(15.748619, 32.065261)">
                        <polygon id="Clip-24" points="0 0 7.66520788 0 7.66520788 7.91011989 0 7.91011989"></polygon>
                        <path d="M3.61765622,7.88728197 L7.1956171,7.91016461 C7.21073914,7.91016461 7.22498875,7.90956832 7.23945647,7.90815213 C7.24360048,7.90770491 7.2475264,7.90718316 7.25145231,7.90651233 L7.25937684,7.90531975 C7.27137268,7.90375449 7.27697075,7.90300913 7.28256881,7.90189108 C7.28729444,7.90099665 7.29202008,7.89972953 7.29674572,7.89846241 L7.32502683,7.89130693 C7.33004328,7.88974166 7.33527783,7.88780372 7.34051238,7.88579124 L7.35090878,7.88213896 C7.35592522,7.88035009 7.36101437,7.87856122 7.36603081,7.8764742 C7.37024753,7.87468533 7.37460966,7.87259832 7.37889908,7.8705113 L7.38507876,7.86752985 C7.39467544,7.86305767 7.40012809,7.86059797 7.40558075,7.85769106 C7.40936126,7.8555295 7.41314177,7.85321888 7.41692228,7.85090825 L7.42928163,7.84338009 C7.43378916,7.84077132 7.4383694,7.83808801 7.44273152,7.83503202 C7.44789337,7.83160335 7.45261901,7.82795107 7.45734464,7.82422426 L7.46846806,7.81595073 C7.47166696,7.8136401 7.47479315,7.81125494 7.47784663,7.80872071 C7.50052969,7.78986303 7.52161329,7.76854564 7.54051584,7.74536486 L7.55113034,7.73075574 C7.55876406,7.72076788 7.56276268,7.71540126 7.56639778,7.70988558 L7.57766661,7.69117697 C7.58362818,7.68126364 7.58653626,7.67656785 7.58908084,7.67157392 C7.59148001,7.66717628 7.59358837,7.66262956 7.59562403,7.65823192 L7.60122209,7.64630612 C7.60354855,7.64131218 7.60587502,7.63646732 7.60798338,7.63139886 C7.60972823,7.62707575 7.61125498,7.62260357 7.61278172,7.61820593 L7.61728925,7.60583291 C7.61925221,7.60031722 7.62121516,7.59495061 7.62288731,7.58950946 C7.62419595,7.58503728 7.62521378,7.58078871 7.62630431,7.5764656 L7.62790376,7.56960826 C7.63088454,7.55842782 7.63248399,7.55246492 7.63371992,7.54620387 C7.63473775,7.54098633 7.63553748,7.53554518 7.6361918,7.53010403 L7.63728233,7.52302308 C7.63902718,7.51191717 7.6398269,7.50707231 7.64033581,7.50222745 C7.64186256,7.48791648 7.64258958,7.47345644 7.64273498,7.45907094 L7.66520788,3.78920177 C7.66665397,3.53786538 7.46854077,3.33229427 7.22353471,3.33065447 C7.10772027,3.33013272 6.99292366,3.37649429 6.90844383,3.4621365 C6.823964,3.54762963 6.77699844,3.6617447 6.77627142,3.78338794 L6.76064047,6.35153609 L1.51801973,0.911280778 L4.02246149,0.911280778 C4.26754025,0.911280778 4.46696209,0.706902249 4.46696209,0.455640389 C4.46696209,0.204378529 4.26754025,0 4.02246149,0 L0.444500606,0 C0.42901506,0.000149072596 0.414765449,0.000819899276 0.400515839,0.00223608894 C0.396589926,0.00268330672 0.392664012,0.0033541334 0.388665397,0.00395042379 L0.37347066,0.00633558532 C0.368236109,0.007006412 0.362856154,0.00775177498 0.357621603,0.00886981944 C0.352168946,0.00991332761 0.346861693,0.0114040536 0.34155444,0.0128202432 L0.329485892,0.0159507677 C0.324832958,0.0170688122 0.320180024,0.018261393 0.315454388,0.0196775826 C0.310074433,0.0213919175 0.304694478,0.0234043975 0.299314523,0.0253423413 L0.289572442,0.0289946199 C0.284483296,0.030783491 0.279466851,0.0325723622 0.274523109,0.0346593785 C0.269652069,0.0367463948 0.265217241,0.0389824838 0.260709711,0.0411440364 L0.25060412,0.0461379684 C0.245296867,0.0485976662 0.240135018,0.0509828277 0.235045872,0.0538152071 C0.23082915,0.0561258323 0.226830535,0.0585855301 0.222904622,0.0610452279 L0.211344989,0.0681261762 C0.206764757,0.0709585556 0.202184525,0.0737163986 0.197604293,0.0767723868 C0.193387571,0.0796793024 0.189243552,0.0828843632 0.185099533,0.0861639603 L0.178847153,0.0909342834 C0.169904795,0.0976425502 0.166196988,0.100400393 0.162634585,0.103381845 C0.151729271,0.112624346 0.141114765,0.122388601 0.130936472,0.132898219 C0.119304137,0.14474949 0.109780163,0.15563179 0.100692401,0.166886771 C0.0982205297,0.170017295 0.0959667648,0.173371429 0.0935675956,0.176651026 L0.0842617275,0.189471269 C0.0810628354,0.193719838 0.0779366453,0.198042943 0.0750285615,0.202440585 C0.0719750736,0.207061835 0.0695032024,0.211534013 0.0670313311,0.215857119 L0.063105418,0.222639922 C0.0572892505,0.23232964 0.0548173793,0.236503673 0.0525636143,0.240901315 C0.0500917431,0.245597101 0.0479106803,0.250292888 0.0458023195,0.255063211 L0.0428215337,0.261622405 C0.0379504933,0.272132023 0.0357694305,0.276604201 0.0340245802,0.281150916 C0.0319889216,0.286144847 0.0302440713,0.291064243 0.0285719231,0.295983639 L0.0240643933,0.308803882 C0.0223922451,0.313648741 0.0206473948,0.318344528 0.019266055,0.323263924 C0.0177393111,0.328257856 0.0166487796,0.333177251 0.0154855461,0.338171183 L0.0125047603,0.3503206 C0.0111234205,0.355687213 0.00974208066,0.360979291 0.00865154925,0.366569513 C0.00763371992,0.372159735 0.00690669898,0.377600885 0.00610697594,0.383042035 L0.0039986152,0.398098367 C0.00334429635,0.402197863 0.0026899775,0.40629736 0.00225376493,0.410396856 C0.00079972304,0.425676797 0,0.44050952 0,0.45541678 L0,4.12394429 C0,4.37520615 0.199349143,4.57958468 0.444500606,4.57958468 C0.689579366,4.57958468 0.88892851,4.37520615 0.88892851,4.12394429 L0.88892851,1.55519985 L6.12820495,6.99202649 L3.62325428,6.97592665 L3.6203462,6.97592665 C3.50271421,6.97592665 3.39198892,7.02251184 3.30816341,7.10740868 C3.22368357,7.19297635 3.17679072,7.30709142 3.1760637,7.42873466 C3.17446425,7.67999652 3.37265016,7.8857167 3.61765622,7.88728197" id="Fill-23" fill="#FFFFFF"></path>
                    </g>
                </g>
                <g id="SLICES" transform="translate(7.500000, 37.052165)"></g>
            </g>
        </g>
    </g>
</svg>