<?xml version="1.0" encoding="UTF-8"?>
<svg width="40px" height="40px" viewBox="0 0 40 40" version="1.1" xmlns="http://www.w3.org/2000/svg" xmlns:xlink="http://www.w3.org/1999/xlink">
    <title>mobile-gestures-prototyping-tool</title>
    <g id="Page-1" stroke="none" stroke-width="1" fill="none" fill-rule="evenodd">
        <g id="Web-Justinmind-2021" transform="translate(-133.000000, -333.000000)">
            <g id="HOME" transform="translate(25.500000, 295.947835)">
                <g id="Mobile-gestures" transform="translate(109.021772, 37.584997)">
                    <path d="M37.6174312,4.63092244 L19.9711274,4.63208802 L19.9711274,2.42819112 C19.9711274,1.43190995 20.813565,0.621393412 21.8489683,0.621393412 L35.7395903,0.620154981 C36.7750667,0.620154981 37.6174312,1.43074437 37.6174312,2.42702554 L37.6174312,4.63092244 Z" id="Fill-1" fill="#E4E7EB"></path>
                    <path d="M37.5266082,4.48909315 L20.6121004,4.48909315 L20.6121004,2.7107065 C20.6121004,1.74050523 21.4028663,0.951187713 22.3749208,0.951187713 L35.7638607,0.949949282 C36.7358423,0.949949282 37.5266082,1.7392668 37.5266082,2.70954092 L37.5266082,4.48909315 Z M38.4782276,2.70946807 C38.4782276,1.21548342 37.2605138,0 35.7638607,0 L22.3749208,0.00123843081 C20.8781947,0.00123843081 19.660481,1.21672185 19.660481,2.7107065 L19.660481,11.7465163 C19.660481,12.004984 19.8713275,12.2153716 20.1304886,12.2153716 C20.3895036,12.2153716 20.6003502,12.004984 20.6003502,11.7465163 L20.6017369,10.5918616 L20.6121004,10.5917159 L20.6121004,5.43896958 L37.5266082,5.43896958 L37.5266082,27.3361019 L37.5083625,27.3361019 L29.0363297,27.3430954 C28.7773146,27.3430954 28.566541,27.5535557 28.566541,27.8122421 C28.566541,28.0708556 28.7773146,28.2812431 29.0363297,28.2812431 L37.5266082,28.2859783 L37.5266082,30.5753269 C37.5266082,31.545601 36.7358423,32.3349186 35.7638607,32.3349186 L25.1140287,32.34774 C24.8550137,32.34774 24.644313,32.5581275 24.644313,32.816741 C24.644313,33.0754273 24.8550137,33.2858149 25.1140287,33.2858149 L35.7638607,33.2848678 C37.2605138,33.2848678 38.4782276,32.0693844 38.4782276,30.5753269 L38.4782276,2.70946807 Z" id="Fill-13" fill="#55585A"></path>
                    <path d="M30.3097526,2.17054243 L27.2592282,2.17054243 C27.0088981,2.17054243 26.8053497,2.37379078 26.8053497,2.62358956 C26.8053497,2.87338834 27.0088981,3.07663669 27.2592282,3.07663669 L30.3097526,3.07663669 C30.5600828,3.07663669 30.7637041,2.87338834 30.7637041,2.62358956 C30.7637041,2.37379078 30.5600828,2.17054243 30.3097526,2.17054243" id="Fill-17" fill="#55585A"></path>
                    <path d="M20.4490022,17.1589669 L18.508742,22.2563044 C18.4441551,22.4261155 18.4641246,22.6194573 18.5621571,22.773628 C18.6549527,22.9194896 18.8040961,23.0102604 18.9714634,23.0225493 C19.7967094,23.0837149 20.5189655,23.7020035 20.7277382,24.5262719 C20.784854,24.7522213 20.9568297,24.9295036 21.1661611,24.9778216 C21.6219002,25.083395 22.0006238,25.3971826 22.2613454,25.8853199 C22.7427796,26.787721 22.7384505,28.1464198 22.2501037,29.4312452 C21.7239824,30.81529 20.7826197,32.8815121 18.6923782,34.8373429 C18.6330979,34.8925036 18.5869445,34.9577888 18.5551747,35.0315924 L18.0714363,36.3747205 C17.9174751,36.7343124 17.576596,36.9485314 17.1592599,36.9485314 L8.40553605,36.9485314 C7.9995114,36.9485314 7.66421813,36.7475789 7.50872081,36.410959 L6.94482484,35.3812693 C5.46386478,32.6766494 1.15623303,24.8103146 1.12439344,24.7532687 C0.798037597,24.1927941 0.794057647,23.5784156 1.11322165,23.023457 C1.47267391,22.3979068 2.18180311,21.9776381 2.87787529,21.9776381 C3.45315252,21.9776381 3.94582834,22.2678253 4.26499234,22.7947147 L6.63941611,26.5978704 C6.74757297,26.763562 6.92297004,26.8587317 7.12029173,26.8587317 C7.36369705,26.8587317 7.57672907,26.7127304 7.6632406,26.4868508 L11.7491822,15.7862335 C12.0531246,14.9866827 12.6911035,14.5280808 13.4995918,14.5280808 C14.1739488,14.5280808 14.8230297,14.8618379 15.1935141,15.3989914 C15.5417945,15.9037468 15.6017731,16.5288083 15.3624874,17.1589669 L13.5329675,22.1003881 C13.4593035,22.2994554 13.560478,22.5235894 13.7583583,22.5999067 C13.8607897,22.6394269 13.9807467,22.6348883 14.0875769,22.5874082 C14.1942675,22.5399281 14.2778464,22.4541148 14.3170175,22.351893 L16.8357668,15.7863033 C17.1395696,14.9867525 17.7774787,14.5280808 18.585967,14.5280808 C19.2603938,14.5280808 19.9094048,14.8620474 20.279959,15.3992009 C20.6282395,15.9036769 20.6883577,16.5286686 20.4490022,17.1589669 L20.4490022,17.1589669 Z M29.5494005,15.9054924 C29.7200496,15.7348433 29.7199099,15.4567356 29.5489816,15.285528 L27.0858817,12.822498 C27.0028614,12.7396173 26.8926098,12.6939526 26.7754457,12.6939526 C26.6582816,12.6939526 26.5482395,12.7395475 26.4654984,12.8224282 C26.3825479,12.9053089 26.3368832,13.0133959 26.3368832,13.1267895 C26.3368832,13.2401134 26.3825479,13.3482004 26.4654286,13.4311509 L28.1261846,15.0766156 L21.1142821,15.0766156 L21.0464833,14.9690871 C21.0263741,14.9371777 21.0145041,14.9184649 21.0020755,14.9003108 C20.4703682,14.1297368 19.5445761,13.6510257 18.585967,13.6510257 C17.6328738,13.6510257 16.7938726,14.1180762 16.2842995,14.9324297 L16.116583,15.2000638 L15.9157003,14.9006599 C15.384412,14.1300859 14.4584803,13.6511653 13.4995918,13.6510257 C12.3414266,13.6510257 11.3562844,14.3501701 10.9286144,15.4757277 L7.05786937,25.6131472 L7.03922645,25.5834023 L5.01175651,22.3385567 C4.5350703,21.5573694 3.75730443,21.1094506 2.87787529,21.1094506 C1.86431488,21.1094506 0.873516985,21.6937351 0.353749577,22.5979516 C-0.119794561,23.4224295 -0.117839499,24.3714728 0.359195823,25.2016763 L0.45632055,25.3787491 C1.84804596,27.9153733 6.41318741,36.2365395 6.72767323,36.8115374 C7.03538615,37.4376463 7.67818286,37.8261452 8.40553605,37.8261452 L17.1589108,37.8261452 C17.9272504,37.8261452 18.5842214,37.4067842 18.8735008,36.7317289 C18.880972,36.7141334 18.8881638,36.7006574 18.8951462,36.6882288 L19.3671542,35.3985158 L19.383074,35.3832942 C21.5490741,33.322658 22.5247901,31.1748819 23.0703224,29.7386788 C23.6546069,28.2019296 23.6415499,26.6064587 23.0351313,25.4706371 C22.705773,24.8533958 22.2203589,24.4144842 21.631466,24.2013824 L21.5397177,24.168286 L21.5076687,24.0763282 C21.2115465,23.2237113 20.5249703,22.5494241 19.6710966,22.2725733 L19.4665831,22.206171 L19.4730767,22.1890642 L21.2692208,17.4715675 C21.4282093,17.0519272 21.4922376,16.6236288 21.4594903,16.198682 L21.4438498,16.0039437 L21.656812,15.9549275 L28.2328054,15.954718 L26.5293173,17.6732881 C26.4460176,17.7567972 26.4000736,17.8683056 26.4000736,17.9872851 C26.4000736,18.1063345 26.4457383,18.2174938 26.528619,18.3003745 C26.6950088,18.4663453 26.9850564,18.4683702 27.1490722,18.3047035 L29.5494005,15.9054924 Z" id="Fill-9" fill="#55585A"></path>
                </g>
                <g id="SLICES" transform="translate(7.500000, 37.052165)"></g>
            </g>
        </g>
    </g>
</svg>