<?xml version="1.0" encoding="UTF-8"?>
<svg width="40px" height="40px" viewBox="0 0 40 40" version="1.1" xmlns="http://www.w3.org/2000/svg" xmlns:xlink="http://www.w3.org/1999/xlink">
    <title>visual-design</title>
    <g id="Page-1" stroke="none" stroke-width="1" fill="none" fill-rule="evenodd">
        <g id="Web-Justinmind-2021" transform="translate(-33.000000, -333.000000)">
            <g id="HOME" transform="translate(25.500000, 295.947835)">
                <g id="Visual-Design" transform="translate(7.737793, 37.430217)">
                    <path d="M10.8795309,9.68420013 L8.68951053,4.3485377 L6.49956278,9.68420013 L10.8795309,9.68420013 Z M7.06471059,0 L10.4086228,0 L17.4731156,16.5713174 L13.6818189,16.5713174 L12.1747097,12.8809595 L5.20431139,12.8809595 L3.69720217,16.5713174 L0,16.5713174 L7.06471059,0 Z" id="Fill-3" fill="#55585A"></path>
                    <path d="M17.4471516,35.3417005 C17.4471516,36.4695635 16.5279151,37.3871887 15.39791,37.3871887 L3.90712786,37.3874786 C2.77712267,37.3874786 1.85781363,36.4699258 1.85781363,35.3420628 L1.85781363,23.6984697 C1.85781363,22.5705343 2.77712267,21.653054 3.90712786,21.653054 L15.39791,21.6526916 C16.5279151,21.6526916 17.4471516,22.5702444 17.4471516,23.6981074 L17.4471516,35.3417005 Z M3.90712786,20.7965941 C2.30410906,20.7965941 1,22.098387 1,23.6984697 L1,35.3421353 C1,36.942218 2.30418166,38.2440109 3.90720047,38.2440109 L15.3977647,38.2436486 C17.0009288,38.2436486 18.3050378,36.9418556 18.3050378,35.3417729 L18.3050378,23.6981074 C18.3050378,22.0980247 17.0009288,20.7962317 15.39791,20.7962317 L3.90712786,20.7965941 Z" id="Fill-1" fill="#55585A"></path>
                    <path d="M0.999081774,22.4572155 C0.799421386,22.4572155 0.636062886,22.2941562 0.636062886,22.0948615 L0.636062886,20.7953152 C0.636062886,20.5960205 0.799421386,20.4329612 0.999081774,20.4329612 L2.30101272,20.4329612 C2.50067311,20.4329612 2.6640316,20.5960205 2.6640316,20.7953152 L2.6640316,22.0948615 C2.6640316,22.2941562 2.50067311,22.4572155 2.30101272,22.4572155 L0.999081774,22.4572155 Z" id="Fill-27" fill="#55585A"></path>
                    <path d="M9.00569829,22.093945 C8.8060379,22.093945 8.6426794,21.9308857 8.6426794,21.731591 L8.6426794,20.4320447 C8.6426794,20.23275 8.8060379,20.0696907 9.00569829,20.0696907 L10.3076292,20.0696907 C10.5072896,20.0696907 10.6706481,20.23275 10.6706481,20.4320447 L10.6706481,21.731591 C10.6706481,21.9308857 10.5072896,22.093945 10.3076292,22.093945 L9.00569829,22.093945 Z" id="Fill-31" fill="#55585A"></path>
                    <path d="M17.0123148,22.4572155 C16.8126544,22.4572155 16.6492959,22.2941562 16.6492959,22.0948615 L16.6492959,20.7953152 C16.6492959,20.5960205 16.8126544,20.4329612 17.0123148,20.4329612 L18.3142457,20.4329612 C18.5139061,20.4329612 18.6772646,20.5960205 18.6772646,20.7953152 L18.6772646,22.0948615 C18.6772646,22.2941562 18.5139061,22.4572155 18.3142457,22.4572155 L17.0123148,22.4572155 Z" id="Fill-35" fill="#55585A"></path>
                    <path d="M34.5560329,5.8143619 C34.857629,5.8143619 35.1029572,5.56948308 35.1029572,5.26843939 C35.1029572,4.96732323 34.857629,4.72251687 34.5560329,4.72251687 L31.8455161,4.72251687 C31.54392,4.72251687 31.2985918,4.96732323 31.2985918,5.26843939 C31.2985918,5.56948308 31.54392,5.8143619 31.8455161,5.8143619 L34.5560329,5.8143619 Z" id="Fill-11" fill="#55585A"></path>
                    <path d="M21.2913398,9.08176322 C20.9897437,9.08176322 20.7444155,9.32664204 20.7444155,9.62768573 C20.7444155,9.9288019 20.9897437,10.1736082 21.2913398,10.1736082 L36.4171026,10.1736082 C36.7186987,10.1736082 36.9640268,9.9288019 36.9640268,9.62768573 C36.9640268,9.32664204 36.7186987,9.08176322 36.4171026,9.08176322 L21.2913398,9.08176322 Z" id="Fill-13" fill="#55585A"></path>
                    <path d="M24.4014934,26.0366302 C22.6708372,26.0366302 21.2628321,24.6311316 21.2628321,22.9037176 C21.2628321,21.1762313 22.6708372,19.7708776 24.4014934,19.7708776 L35.3815805,19.7708776 C37.1122368,19.7708776 38.5201692,21.1762313 38.5201692,22.9037176 C38.5201692,24.6311316 37.1122368,26.0366302 35.3815805,26.0366302 L24.4014934,26.0366302 Z M24.4014934,18.8900675 C22.1843193,18.8900675 20.3804784,20.6906044 20.3804784,22.9037176 C20.3804784,25.1168308 22.1843193,26.9172953 24.4014934,26.9172953 L35.3815805,26.9172953 C37.5985369,26.9172953 39.4022325,25.1168308 39.4022325,22.9037176 C39.4022325,20.6906044 37.5985369,18.8900675 35.3815805,18.8900675 L24.4014934,18.8900675 Z" id="Fill-15" fill="#55585A"></path>
                    <path d="M21.2913398,0 C20.9897437,0 20.7444155,0.244878823 20.7444155,0.545922514 C20.7444155,0.847038675 20.9897437,1.09184503 21.2913398,1.09184503 L38.885631,1.09184503 C39.1872271,1.09184503 39.4325553,0.847038675 39.4325553,0.545922514 C39.4325553,0.244878823 39.1872271,0 38.885631,0 L21.2913398,0 Z" id="Fill-5" fill="#55585A"></path>
                    <path d="M23.6913473,22.9649001 C23.6913473,22.3399844 24.2007354,21.8315293 24.8267978,21.8315293 C25.4528602,21.8316017 25.9622483,22.3400568 25.9622483,22.9649001 C25.9622483,23.5897433 25.4528602,24.0981984 24.8267978,24.0981984 C24.2007354,24.0981259 23.6913473,23.5896708 23.6913473,22.9649001 Z M22.5641011,22.9649001 C22.5641011,24.2101658 23.5791019,25.2233075 24.8267978,25.2233075 C26.0744937,25.2233075 27.0894945,24.2101658 27.0894945,22.9649001 C27.0894945,21.7195619 26.0744937,20.7064201 24.8267978,20.7064201 C23.5791019,20.7064201 22.5641011,21.7195619 22.5641011,22.9649001 Z" id="Fill-17" fill="#55585A"></path>
                    <path d="M17.3762519,30.8124377 C17.1765915,30.8124377 17.013233,30.6493784 17.013233,30.4500837 L17.013233,29.1505373 C17.013233,28.9512427 17.1765915,28.7881834 17.3762519,28.7881834 L18.6781829,28.7881834 C18.8778432,28.7881834 19.0412017,28.9512427 19.0412017,29.1505373 L19.0412017,30.4500837 C19.0412017,30.6493784 18.8778432,30.8124377 18.6781829,30.8124377 L17.3762519,30.8124377 Z" id="Fill-40" fill="#55585A"></path>
                    <path d="M17.0123148,38.8043893 C16.8126544,38.8043893 16.6492959,38.64133 16.6492959,38.4420353 L16.6492959,37.142489 C16.6492959,36.9431943 16.8126544,36.780135 17.0123148,36.780135 L18.3142457,36.780135 C18.5139061,36.780135 18.6772646,36.9431943 18.6772646,37.142489 L18.6772646,38.4420353 C18.6772646,38.64133 18.5139061,38.8043893 18.3142457,38.8043893 L17.0123148,38.8043893 Z" id="Fill-42" fill="#55585A"></path>
                    <path d="M9.00569829,38.8043893 C8.8060379,38.8043893 8.6426794,38.64133 8.6426794,38.4420353 L8.6426794,37.142489 C8.6426794,36.9431943 8.8060379,36.780135 9.00569829,36.780135 L10.3076292,36.780135 C10.5072896,36.780135 10.6706481,36.9431943 10.6706481,37.142489 L10.6706481,38.4420353 C10.6706481,38.64133 10.5072896,38.8043893 10.3076292,38.8043893 L9.00569829,38.8043893 Z" id="Fill-33" fill="#55585A"></path>
                    <path d="M0.999081774,38.8043893 C0.799421386,38.8043893 0.636062886,38.64133 0.636062886,38.4420353 L0.636062886,37.142489 C0.636062886,36.9431943 0.799421386,36.780135 0.999081774,36.780135 L2.30101272,36.780135 C2.50067311,36.780135 2.6640316,36.9431943 2.6640316,37.142489 L2.6640316,38.4420353 C2.6640316,38.64133 2.50067311,38.8043893 2.30101272,38.8043893 L0.999081774,38.8043893 Z" id="Fill-29" fill="#55585A"></path>
                    <g id="Group-39" transform="translate(0.636034, 28.811207)">
                        <polygon id="Clip-38" points="2.90415114e-05 0 2.02796872 0 2.02796872 2.0242543 2.90415114e-05 2.0242543"></polygon>
                        <path d="M1.66494983,2.0242543 L0.363018889,2.0242543 C0.1633585,2.0242543 0,1.86119501 0,1.66190032 L0,0.362353985 C0,0.163059293 0.1633585,0 0.363018889,0 L1.66494983,0 C1.86461022,0 2.02796872,0.163059293 2.02796872,0.362353985 L2.02796872,1.66190032 C2.02796872,1.86119501 1.86461022,2.0242543 1.66494983,2.0242543" id="Fill-37" fill="#55585A"></path>
                    </g>
                    <path d="M38.2606407,36.7494542 C38.2606407,37.3616875 37.7615623,37.8598518 37.1482056,37.8598518 L33.3696146,37.8598518 C32.7562579,37.8598518 32.2571795,37.3616875 32.2571795,36.7494542 L32.2571795,33.0349635 C32.2571795,32.4226578 32.7562579,31.924566 33.3696146,31.924566 L37.1482056,31.924566 C37.7615623,31.924566 38.2606407,32.4226578 38.2606407,33.0349635 L38.2606407,36.7494542 Z M39.2192283,33.0349635 C39.2192283,31.8951429 38.2901178,30.9678065 37.1482056,30.9678065 L33.3696146,30.9678065 C32.2276298,30.9678065 31.2985918,31.8951429 31.2985918,33.0349635 L31.2985918,36.7494542 C31.2985918,37.8893474 32.2276298,38.8166113 33.3696146,38.8166113 L37.1482056,38.8166113 C38.2901178,38.8166113 39.2192283,37.8893474 39.2192283,36.7494542 L39.2192283,33.0349635 Z" id="Fill-25" fill="#55585A"></path>
                    <path d="M27.3425272,36.7494542 C27.3425272,37.3616875 26.8434489,37.8598518 26.2300922,37.8598518 L22.4515012,37.8598518 C21.8381444,37.8598518 21.3390661,37.3616875 21.3390661,36.7494542 L21.3390661,33.0349635 C21.3390661,32.4226578 21.8381444,31.924566 22.4515012,31.924566 L26.2300922,31.924566 C26.8434489,31.924566 27.3425272,32.4226578 27.3425272,33.0349635 L27.3425272,36.7494542 Z M22.4515012,30.9678065 C21.3095163,30.9678065 20.3804784,31.8951429 20.3804784,33.0349635 L20.3804784,36.7494542 C20.3804784,37.8893474 21.3095163,38.8166113 22.4515012,38.8166113 L26.2300922,38.8166113 C27.3720044,38.8166113 28.3010423,37.8893474 28.3010423,36.7494542 L28.3010423,33.0349635 C28.3010423,31.8951429 27.3720044,30.9678065 26.2300922,30.9678065 L22.4515012,30.9678065 Z" id="Fill-21" fill="#55585A"></path>
                    <path d="M22.5665739,32.0576181 C21.9630187,32.0576181 21.4722897,32.5477381 21.4722897,33.149898 L21.4722897,36.8643887 C21.4722897,37.466621 21.9630187,37.9566685 22.5665739,37.9566685 L26.3451649,37.9566685 C26.9486475,37.9566685 27.439449,37.466621 27.439449,36.8643887 L27.439449,33.149898 C27.439449,32.5477381 26.9486475,32.0576181 26.3451649,32.0576181 L22.5665739,32.0576181 Z" id="Fill-23" fill="#E4E7EB"></path>
                    <path d="M29.084121,5.8143619 C29.3857171,5.8143619 29.6310453,5.56948308 29.6310453,5.26843939 C29.6310453,4.96732323 29.3857171,4.72251687 29.084121,4.72251687 L21.2913398,4.72251687 C20.9897437,4.72251687 20.7444155,4.96732323 20.7444155,5.26843939 C20.7444155,5.56948308 20.9897437,5.8143619 21.2913398,5.8143619 L29.084121,5.8143619 Z" id="Fill-7" fill="#55585A"></path>
                    <path d="M29.084121,14.5328546 C29.3857171,14.5328546 29.6310453,14.2879758 29.6310453,13.9869321 C29.6310453,13.6858159 29.3857171,13.4410096 29.084121,13.4410096 L21.2913398,13.4410096 C20.9897437,13.4410096 20.7444155,13.6858159 20.7444155,13.9869321 C20.7444155,14.2879758 20.9897437,14.5328546 21.2913398,14.5328546 L29.084121,14.5328546 Z" id="Fill-9" fill="#55585A"></path>
                </g>
                <g id="SLICES" transform="translate(7.500000, 37.052165)"></g>
            </g>
        </g>
    </g>
</svg>