<?xml version="1.0" encoding="UTF-8"?>
<svg width="40px" height="40px" viewBox="0 0 40 40" version="1.1" xmlns="http://www.w3.org/2000/svg" xmlns:xlink="http://www.w3.org/1999/xlink">
    <title>Web-interactions</title>
    <g id="Page-1" stroke="none" stroke-width="1" fill="none" fill-rule="evenodd">
        <g id="Web-Justinmind-2021" transform="translate(-83.000000, -333.000000)">
            <g id="HOME" transform="translate(25.500000, 295.947835)">
                <g id="Web-interactions" transform="translate(57.596761, 37.634191)">
                    <path d="M36.7219481,0.844991977 L3.6274266,0.844991977 C1.96462256,0.844991977 0.611771179,2.14162168 0.611771179,3.73541791 L0.611771179,3.73676834 L0.611771179,4.63708126 L39.7375307,4.63708126 L39.7375307,3.73541791 C39.7375307,2.14162168 38.3846794,0.844991977 36.7219481,0.844991977" id="Fill-1" fill="#E4E7EB"></path>
                    <g id="Group-5">
                        <polygon id="Clip-4" points="0 0 39.8064407 0 39.8064407 29.0534467 0 29.0534467"></polygon>
                        <path d="M39.806477,2.8815415 C39.806477,1.29264948 38.4835225,0 36.8574531,0 L2.94902397,0.00135043383 C1.32288177,0.00135043383 0,1.29399991 0,2.88289193 L0,26.1719052 C0,27.7607262 1.32295451,29.0534467 2.94909671,29.0534467 L19.839444,29.0280728 C20.0965134,29.0280728 20.305646,28.8237308 20.305646,28.5726212 C20.305646,28.3215116 20.0965134,28.1171696 19.8395167,28.1171696 L2.94909671,28.1424014 C1.83694784,28.1424014 0.932258483,27.2584359 0.932258483,26.1718341 L0.932258483,4.61805726 L0.959609387,4.61812833 L31.1630821,4.68863519 C31.420006,4.68863519 31.6291386,4.48436431 31.6291386,4.23318361 C31.6291386,3.98200292 31.4200787,3.77773204 31.1630821,3.77773204 L0.932258483,3.70708302 L0.932258483,2.88289193 C0.932258483,1.79629022 1.83694784,0.912324668 2.94902397,0.912324668 L36.8574531,0.910903158 C37.9694564,0.910903158 38.8742185,1.79493979 38.8742185,2.8815415 L38.8742185,3.77744773 L35.830994,3.77780311 C35.7072602,3.78050398 35.5914553,3.83047003 35.5052564,3.91846146 C35.4191301,4.00652396 35.3731573,4.12187944 35.3759215,4.24327633 C35.3786857,4.36467322 35.4297504,4.47789644 35.5198047,4.56219194 C35.6090589,4.64556346 35.7254457,4.68913272 35.8520164,4.68849304 L38.8742185,4.68820874 L38.8742185,17.7997841 C38.8742185,18.0508937 39.0833511,18.2551646 39.3403478,18.2551646 C39.5973444,18.2551646 39.806477,18.0508937 39.806477,17.7997841 L39.806477,2.8815415 Z" id="Fill-3" fill="#55585A"></path>
                    </g>
                    <path d="M21.6750298,9.54407249 L6.66600285,9.54407249 C6.36383355,9.54407249 6.11803912,9.78423649 6.11803912,10.079484 C6.11803912,10.3748025 6.36383355,10.6148954 6.66600285,10.6148954 L21.6750298,10.6148954 C21.9771991,10.6148954 22.2229935,10.3748025 22.2229935,10.079484 C22.2229935,9.78423649 21.9771991,9.54407249 21.6750298,9.54407249" id="Fill-6" fill="#55585A"></path>
                    <path d="M6.66600285,14.5144833 L13.0187596,14.5144833 C13.3209289,14.5144833 13.5667233,14.2743193 13.5667233,13.9790718 C13.5667233,13.6837532 13.3209289,13.4436603 13.0187596,13.4436603 L6.66600285,13.4436603 C6.36383355,13.4436603 6.11803912,13.6837532 6.11803912,13.9790718 C6.11803912,14.2743193 6.36383355,14.5144833 6.66600285,14.5144833" id="Fill-8" fill="#55585A"></path>
                    <path d="M15.8431161,14.5144833 L17.8313668,14.5144833 C18.1335361,14.5144833 18.3793305,14.2743193 18.3793305,13.9790718 C18.3793305,13.6837532 18.1335361,13.4436603 17.8313668,13.4436603 L15.8431161,13.4436603 C15.5409468,13.4436603 15.2951524,13.6837532 15.2951524,13.9790718 C15.2951524,14.2743193 15.5409468,14.5144833 15.8431161,14.5144833" id="Fill-10" fill="#55585A"></path>
                    <path d="M16.7285897,17.0432798 L6.66600285,17.0432798 C6.36383355,17.0432798 6.11803912,17.2834438 6.11803912,17.5786913 C6.11803912,17.8740099 6.36383355,18.1141028 6.66600285,18.1141028 L16.7285897,18.1141028 C17.030759,18.1141028 17.2765534,17.8740099 17.2765534,17.5786913 C17.2765534,17.2834438 17.030759,17.0432798 16.7285897,17.0432798" id="Fill-12" fill="#55585A"></path>
                    <g id="Group-16" transform="translate(29.402139, 26.067982)">
                        <polygon id="Clip-15" points="0 0 9.88008722 0 9.88008722 12.7679302 0 12.7679302"></polygon>
                        <path d="M5.40771507,7.11035878 C5.3565776,7.22223156 5.36239695,7.35301042 5.4232818,7.46012114 L7.45655967,11.0407609 L5.98623034,11.8437715 L3.93069349,8.27521457 C3.8692267,8.16838815 3.75822276,8.09503827 3.63390708,8.07897521 C3.61674003,8.07677187 3.59950023,8.07570574 3.58226043,8.07570574 C3.47533003,8.07570574 3.37080011,8.11778242 3.29514868,8.19312241 L1.27867416,10.2042738 L0.839532114,1.15828612 L8.49458468,6.26363676 L5.68457023,6.8881058 C5.56214584,6.91546985 5.4586343,6.99855707 5.40771507,7.11035878 M9.70515316,6.1233338 L0.626762446,0.0687703182 C0.500264514,-0.015809485 0.338777791,-0.0228459561 0.205296649,0.0502906973 C0.0718155075,0.123143049 -0.00674560061,0.261242677 0.000455834295,0.410572229 L0.521141401,11.1387029 C0.528852028,11.2942871 0.629963084,11.4306098 0.778719997,11.4860487 C0.789776745,11.4902422 0.801124461,11.493867 0.812399435,11.4969943 C0.953736688,11.5361569 1.10496682,11.4966389 1.2076782,11.3941481 L3.49358822,9.11440259 L5.48329376,12.5685991 C5.55676295,12.6961085 5.69315376,12.7679658 5.83339989,12.7679658 C5.89952215,12.7679658 5.96651732,12.7519738 6.02812959,12.718213 L8.19612521,11.53438 C8.38845444,11.4293305 8.45785009,11.1906591 8.35099243,11.0025223 L6.38267297,7.53666942 L9.56796219,6.82875779 C9.72348409,6.79421511 9.84328978,6.67288929 9.8731139,6.51965059 C9.90264706,6.36662511 9.83681576,6.211112 9.70515316,6.1233338" id="Fill-14" fill="#55585A"></path>
                    </g>
                    <path d="M23.8883897,25.162439 C23.8883897,22.3528259 26.2277649,20.0670389 29.103247,20.0670389 C31.9788745,20.0670389 34.3182497,22.3528259 34.3182497,25.162439 C34.3182497,25.7588332 34.2119012,26.3311329 34.0184081,26.8634881 L34.8665771,27.2866004 C35.1225554,26.6256696 35.2638927,25.9100107 35.2638927,25.162439 C35.2638927,21.8433569 32.5002875,19.1430579 29.103247,19.1430579 C25.7063519,19.1430579 22.9427467,21.8433569 22.9427467,25.162439 C22.9427467,27.901332 24.8252309,30.2171128 27.3917059,30.9437884 L27.4272767,29.986473 C25.3718126,29.302727 23.8883897,27.399326 23.8883897,25.162439" id="Fill-17" fill="#55585A"></path>
                    <path d="M27.2533312,24.9136178 C27.2533312,23.8952486 28.101282,23.0667219 29.1435988,23.0667219 C30.1858428,23.0667219 31.0338663,23.8952486 31.0338663,24.9136178 C31.0338663,25.1443288 31.019318,25.2838499 30.9399567,25.4876233 L31.7612113,25.9764803 C31.924953,25.6264337 31.9795093,25.3230125 31.9795093,24.9136178 C31.9795093,23.3857086 30.7073285,22.1427408 29.1435988,22.1427408 C27.579869,22.1427408 26.3076883,23.3857086 26.3076883,24.9136178 C26.3076883,26.1584335 27.0529277,27.1819913 28.2114858,27.5304032 L28.2313443,26.5305136 C27.6488282,26.2155071 27.2533312,25.6089491 27.2533312,24.9136178" id="Fill-19" fill="#55585A"></path>
                </g>
                <g id="SLICES" transform="translate(7.500000, 37.052165)"></g>
            </g>
        </g>
    </g>
</svg>